<svg width="72" height="72" viewBox="0 0 72 72" fill="none" xmlns="http://www.w3.org/2000/svg">
<path d="M0 0H52C63.0457 0 72 8.95431 72 20V52C72 63.0457 63.0457 72 52 72H0V0Z" fill="#4D9D82"/>
<path d="M0 56C0 44.9543 8.95431 36 20 36H72V52C72 63.0457 63.0457 72 52 72H0V56Z" fill="#6CBCA1"/>
<g clip-path="url(#clip0_3_8)">
<path d="M44.5059 26.1252C44.389 26.0041 44.249 25.9078 44.0941 25.842C43.9393 25.7763 43.7727 25.7424 43.6045 25.7424C43.4362 25.7424 43.2697 25.7763 43.1149 25.842C42.96 25.9078 42.82 26.0041 42.7031 26.1252L41.3299 27.4941C40.9576 27.254 40.5679 27.0418 40.1641 26.8594C39.7587 26.6779 39.3433 26.5197 38.9199 26.3854V24.2695C38.9237 24.1021 38.8929 23.9356 38.8296 23.7806C38.7663 23.6255 38.6717 23.4851 38.5518 23.3682C38.4349 23.2481 38.2945 23.1535 38.1394 23.0902C37.9844 23.0268 37.8179 22.9961 37.6504 23H35.0077C34.8424 22.9987 34.6786 23.0306 34.526 23.0939C34.3733 23.1571 34.2349 23.2504 34.119 23.3682C33.9975 23.4844 33.9014 23.6244 33.8366 23.7795C33.7718 23.9346 33.7397 24.1015 33.7424 24.2695V26.1971C33.306 26.2996 32.8775 26.4333 32.4601 26.597C32.054 26.752 31.6588 26.9344 31.2773 27.1429L29.756 25.6427C29.6448 25.5204 29.5088 25.4231 29.357 25.3574C29.2052 25.2917 29.0412 25.2592 28.8758 25.2619C28.7076 25.2611 28.541 25.2945 28.3861 25.36C28.2312 25.4254 28.0912 25.5216 27.9745 25.6427L26.1252 27.4984C26.0041 27.6152 25.9078 27.7552 25.842 27.9101C25.7763 28.065 25.7424 28.2315 25.7424 28.3997C25.7424 28.568 25.7763 28.7345 25.842 28.8894C25.9078 29.0442 26.0041 29.1843 26.1252 29.3011L27.4941 30.6743C27.254 31.0467 27.0418 31.4364 26.8594 31.8402C26.6772 32.2438 26.5189 32.6578 26.3854 33.0801H24.2695C24.1021 33.0763 23.9356 33.1071 23.7806 33.1704C23.6255 33.2338 23.4851 33.3283 23.3682 33.4482C23.2481 33.5651 23.1535 33.7055 23.0902 33.8606C23.0268 34.0156 22.9961 34.1821 23 34.3496V36.9923C22.9987 37.1576 23.0307 37.3214 23.0939 37.474C23.1571 37.6267 23.2504 37.7651 23.3682 37.881C23.4841 38.0029 23.6241 38.0993 23.7792 38.1641C23.9344 38.229 24.1014 38.2608 24.2695 38.2576H26.1992C26.3011 38.694 26.434 39.1225 26.597 39.5399C26.7565 39.9531 26.9387 40.3571 27.1429 40.7502L25.6385 42.2546C25.5161 42.3658 25.4189 42.5018 25.3532 42.6536C25.2875 42.8054 25.255 42.9694 25.2577 43.1348C25.2569 43.303 25.2903 43.4695 25.3557 43.6245C25.4212 43.7794 25.5174 43.9194 25.6385 44.0361L27.4941 45.9129C27.7387 46.1414 28.0609 46.2685 28.3955 46.2685C28.7302 46.2685 29.0523 46.1414 29.2969 45.9129L30.6701 44.5186C31.0432 44.7575 31.4328 44.9697 31.8359 45.1533C32.2415 45.3381 32.6568 45.5006 33.0801 45.64V47.7453C33.0784 47.9125 33.1101 48.0783 33.1733 48.2331C33.2365 48.3879 33.3299 48.5285 33.4481 48.6468C33.5664 48.765 33.707 48.8584 33.8618 48.9216C34.0166 48.9848 34.1824 49.0165 34.3496 49.0148H36.9924C37.1576 49.0161 37.3214 48.9842 37.4741 48.9209C37.6267 48.8577 37.7651 48.7644 37.881 48.6466C38.0029 48.5307 38.0993 48.3908 38.1641 48.2356C38.229 48.0804 38.2608 47.9134 38.2577 47.7453V45.8177C38.6939 45.7165 39.1224 45.5843 39.5399 45.422C39.9534 45.2634 40.3575 45.0812 40.7502 44.8761L42.2546 46.3615C42.3696 46.482 42.5078 46.5779 42.6609 46.6434C42.814 46.7089 42.9788 46.7427 43.1454 46.7427C43.3119 46.7427 43.4767 46.7089 43.6298 46.6434C43.7829 46.5779 43.9211 46.482 44.0361 46.3615L45.9129 44.508C46.1415 44.2631 46.2687 43.9406 46.2687 43.6055C46.2687 43.2705 46.1415 42.948 45.9129 42.7031L44.5164 41.3299C44.7566 40.9576 44.9688 40.5679 45.1512 40.1641C45.336 39.7585 45.4985 39.3432 45.6379 38.9199H47.7432C47.9104 38.9216 48.0762 38.8899 48.231 38.8267C48.3858 38.7635 48.5264 38.6701 48.6446 38.5519C48.7629 38.4336 48.8563 38.293 48.9195 38.1382C48.9827 37.9834 49.0144 37.8176 49.0127 37.6504V35.0076C49.014 34.8424 48.9821 34.6786 48.9188 34.5259C48.8556 34.3733 48.7623 34.2349 48.6445 34.119C48.5286 33.9971 48.3886 33.9007 48.2335 33.8359C48.0783 33.771 47.9113 33.7392 47.7432 33.7423H45.8156C45.7095 33.3116 45.5774 32.8876 45.4199 32.4728C45.2662 32.0614 45.0838 31.6612 44.874 31.2752L46.3742 29.756C46.4966 29.6448 46.5938 29.5088 46.6595 29.357C46.7252 29.2052 46.7578 29.0412 46.7551 28.8758C46.7558 28.7076 46.7224 28.541 46.657 28.3861C46.5915 28.2312 46.4953 28.0911 46.3742 27.9744L44.5186 26.1252H44.5059ZM36 28.241C37.7929 28.2409 39.5303 28.8624 40.9164 29.9995C42.3025 31.1367 43.2515 32.7192 43.6017 34.4775C43.952 36.2358 43.6818 38.0612 42.8372 39.6427C41.9926 41.2241 40.6258 42.4639 38.9697 43.1507C37.3137 43.8376 35.4707 43.929 33.7547 43.4095C32.0388 42.89 30.556 41.7916 29.559 40.3016C28.562 38.8115 28.1124 37.0218 28.2868 35.2375C28.4613 33.4531 29.2489 31.7844 30.5156 30.5156C31.2351 29.7945 32.09 29.2226 33.0312 28.833C33.9724 28.4434 34.9813 28.2436 36 28.2453V28.241Z" fill="white"/>
<path fill-rule="evenodd" clip-rule="evenodd" d="M36 29.9549C37.1962 29.9545 38.3657 30.3089 39.3604 30.9732C40.3552 31.6375 41.1306 32.5819 41.5886 33.687C42.0466 34.792 42.1665 36.0081 41.9332 37.1814C41.7 38.3546 41.124 39.4323 40.2781 40.2781C39.4323 41.124 38.3546 41.7 37.1813 41.9332C36.0081 42.1665 34.792 42.0466 33.687 41.5886C32.5819 41.1306 31.6375 40.3552 30.9732 39.3604C30.3089 38.3657 29.9545 37.1962 29.9549 36C29.9555 34.3969 30.5925 32.8597 31.7261 31.7261C32.8596 30.5926 34.3969 29.9555 36 29.9549ZM34.1169 35.033L35.1917 36.0466L37.7308 33.4715C37.9424 33.2599 38.0736 33.0864 38.3338 33.353L39.1802 34.2163C39.4574 34.4914 39.4425 34.6522 39.1802 34.9061L35.6741 38.3592C35.124 38.8988 35.2192 38.9326 34.6606 38.3783L32.6992 36.4274C32.6728 36.4022 32.6524 36.3713 32.6396 36.3371C32.6268 36.3029 32.6218 36.2663 32.625 36.2299C32.6283 36.1935 32.6397 36.1583 32.6584 36.127C32.6771 36.0956 32.7026 36.0688 32.7331 36.0487L33.7106 35.0352C33.8587 34.8786 33.9772 34.8934 34.1338 35.0352L34.1169 35.033Z" fill="white"/>
</g>
<defs>
<clipPath id="clip0_3_8">
<rect width="26" height="26" fill="white" transform="translate(23 23)"/>
</clipPath>
</defs>
</svg>
